<svg xmlns="http://www.w3.org/2000/svg" xmlns:xlink="http://www.w3.org/1999/xlink" contentStyleType="text/css" data-diagram-type="ACTIVITY" height="934px" preserveAspectRatio="none" style="width:325px;height:934px;background:#FFFFFF;" version="1.1" viewBox="0 0 325 934" width="325px" zoomAndPan="magnify"><?plantuml 1.2026.3beta6?><defs/><g><ellipse cx="148.1335" cy="25" fill="#222222" rx="10" ry="10" style="stroke:#222222;stroke-width:1;"/><rect fill="#F1F1F1" height="33.9688" rx="12.5" ry="12.5" style="stroke:#181818;stroke-width:0.5;" width="164.2053" x="66.0308" y="55"/><text fill="#000000" font-family="sans-serif" font-size="12" lengthAdjust="spacing" textLength="144.2053" x="76.0308" y="76.1387">&#36755;&#20837; stroke.p, role=10.0</text><polygon fill="#F1F1F1" points="122.6101,108.9688,173.6568,108.9688,185.6568,120.9688,173.6568,132.9688,122.6101,132.9688,110.6101,120.9688,122.6101,108.9688" style="stroke:#181818;stroke-width:0.5;"/><text fill="#000000" font-family="sans-serif" font-size="11" lengthAdjust="spacing" textLength="51.0467" x="122.6101" y="124.7769">&#28857;&#25968; &lt; 2?</text><text fill="#000000" font-family="sans-serif" font-size="11" lengthAdjust="spacing" textLength="10.9999" x="185.6568" y="118.3745">&#26159;</text><ellipse cx="218.6568" cy="120.9688" fill="none" rx="11" ry="11" style="stroke:#222222;stroke-width:1;"/><ellipse cx="218.6568" cy="120.9688" fill="#222222" rx="6" ry="6" style="stroke:#222222;stroke-width:1;"/><rect fill="#F1F1F1" height="33.9688" rx="12.5" ry="12.5" style="stroke:#181818;stroke-width:0.5;" width="127.8541" x="84.2064" y="152.9688"/><text fill="#000000" font-family="sans-serif" font-size="12" lengthAdjust="spacing" textLength="107.8541" x="94.2064" y="174.1074">&#21021;&#22987;&#21270;&#31354;&#21521;&#37327; newP</text><rect fill="#F1F1F1" height="33.9688" rx="12.5" ry="12.5" style="stroke:#181818;stroke-width:0.5;" width="113.7972" x="91.2348" y="206.9375"/><text fill="#000000" font-family="sans-serif" font-size="12" lengthAdjust="spacing" textLength="93.7972" x="101.2348" y="228.0762">i &#20174; 0 &#36941;&#21382;&#21040; n-2</text><rect fill="#F1F1F1" height="33.9688" rx="12.5" ry="12.5" style="stroke:#181818;stroke-width:0.5;" width="150.1375" x="73.0647" y="260.9063"/><text fill="#000000" font-family="sans-serif" font-size="12" lengthAdjust="spacing" textLength="130.1375" x="83.0647" y="282.0449">&#35745;&#31639;&#24403;&#21069;&#27573;&#20004;&#28857;&#36317;&#31163; len</text><rect fill="#F1F1F1" height="33.9688" rx="12.5" ry="12.5" style="stroke:#181818;stroke-width:0.5;" width="160.7949" x="67.736" y="314.875"/><text fill="#000000" font-family="sans-serif" font-size="12" lengthAdjust="spacing" textLength="140.7949" x="77.736" y="336.0137">nums = int(len/role) - 1</text><rect fill="#F1F1F1" height="33.9688" rx="12.5" ry="12.5" style="stroke:#181818;stroke-width:0.5;" width="264.2669" x="16" y="417.2461"/><text fill="#000000" font-family="sans-serif" font-size="12" lengthAdjust="spacing" textLength="244.2669" x="26" y="438.3848">&#21462;&#37051;&#36817;&#22235;&#28857; p0,p1,p2,p3&#65288;&#36793;&#30028;&#22788;&#37325;&#22797;&#31471;&#28857;&#65289;</text><rect fill="#F1F1F1" height="33.9688" rx="12.5" ry="12.5" style="stroke:#181818;stroke-width:0.5;" width="163.3381" x="66.4644" y="471.2148"/><text fill="#000000" font-family="sans-serif" font-size="12" lengthAdjust="spacing" textLength="143.3381" x="76.4644" y="492.3535">&#27493;&#38271; step = 1/(nums+1)</text><rect fill="#F1F1F1" height="33.9688" rx="12.5" ry="12.5" style="stroke:#181818;stroke-width:0.5;" width="175.2915" x="60.4877" y="525.1836"/><text fill="#000000" font-family="sans-serif" font-size="12" lengthAdjust="spacing" textLength="155.2915" x="70.4877" y="546.3223">t &#20174; 0 &#21040; 1-step&#65292;&#27493;&#36827; step</text><rect fill="#F1F1F1" height="33.9688" rx="12.5" ry="12.5" style="stroke:#181818;stroke-width:0.5;" width="197.9148" x="49.1761" y="579.1523"/><text fill="#000000" font-family="sans-serif" font-size="12" lengthAdjust="spacing" textLength="177.9148" x="59.1761" y="600.291">Catmull-Rom &#26679;&#26465;&#35745;&#31639;&#26032;&#28857;&#22352;&#26631;</text><rect fill="#F1F1F1" height="33.9688" rx="12.5" ry="12.5" style="stroke:#181818;stroke-width:0.5;" width="79.8537" x="108.2066" y="633.1211"/><text fill="#000000" font-family="sans-serif" font-size="12" lengthAdjust="spacing" textLength="59.8537" x="118.2066" y="654.2598">&#21152;&#20837; newP</text><polygon fill="#F1F1F1" points="118.4152,368.8438,177.8517,368.8438,189.8517,380.8438,177.8517,392.8438,118.4152,392.8438,106.4152,380.8438,118.4152,368.8438" style="stroke:#181818;stroke-width:0.5;"/><text fill="#000000" font-family="sans-serif" font-size="11" lengthAdjust="spacing" textLength="10.9999" x="152.1335" y="403.0542">&#26159;</text><text fill="#000000" font-family="sans-serif" font-size="11" lengthAdjust="spacing" textLength="59.4365" x="118.4152" y="384.6519">nums &gt; 0?</text><text fill="#000000" font-family="sans-serif" font-size="11" lengthAdjust="spacing" textLength="10.9999" x="189.8517" y="378.2495">&#21542;</text><polygon fill="#F1F1F1" points="148.1335,687.0898,160.1335,699.0898,148.1335,711.0898,136.1335,699.0898,148.1335,687.0898" style="stroke:#181818;stroke-width:0.5;"/><rect fill="#F1F1F1" height="33.9688" rx="12.5" ry="12.5" style="stroke:#181818;stroke-width:0.5;" width="68.0004" x="114.1333" y="731.0898"/><text fill="#000000" font-family="sans-serif" font-size="12" lengthAdjust="spacing" textLength="48.0004" x="124.1333" y="752.2285">&#24490;&#29615;&#32467;&#26463;</text><rect fill="#F1F1F1" height="33.9688" rx="12.5" ry="12.5" style="stroke:#181818;stroke-width:0.5;" width="151.8542" x="72.2063" y="785.0586"/><text fill="#000000" font-family="sans-serif" font-size="12" lengthAdjust="spacing" textLength="131.8542" x="82.2063" y="806.1973">&#23558;&#26368;&#21518;&#21407;&#22987;&#28857;&#21152;&#20837; newP</text><rect fill="#F1F1F1" height="33.9688" rx="12.5" ry="12.5" style="stroke:#181818;stroke-width:0.5;" width="161.5977" x="67.3346" y="839.0273"/><text fill="#000000" font-family="sans-serif" font-size="12" lengthAdjust="spacing" textLength="141.5977" x="77.3346" y="860.166">stroke.p = move(newP)</text><ellipse cx="148.1335" cy="903.9961" fill="none" rx="11" ry="11" style="stroke:#222222;stroke-width:1;"/><ellipse cx="148.1335" cy="903.9961" fill="#222222" rx="6" ry="6" style="stroke:#222222;stroke-width:1;"/><line style="stroke:#181818;stroke-width:1;" x1="148.1335" x2="148.1335" y1="35" y2="55"/><polygon fill="#181818" points="144.1335,45,148.1335,55,152.1335,45,148.1335,49" style="stroke:#181818;stroke-width:1;"/><line style="stroke:#181818;stroke-width:1;" x1="148.1335" x2="148.1335" y1="132.9688" y2="152.9688"/><polygon fill="#181818" points="144.1335,142.9688,148.1335,152.9688,152.1335,142.9688,148.1335,146.9688" style="stroke:#181818;stroke-width:1;"/><line style="stroke:#181818;stroke-width:1;" x1="185.6568" x2="207.6568" y1="120.9688" y2="120.9688"/><polygon fill="#181818" points="197.6568,116.9688,207.6568,120.9688,197.6568,124.9688,201.6568,120.9688" style="stroke:#181818;stroke-width:1;"/><line style="stroke:#181818;stroke-width:1;" x1="148.1335" x2="148.1335" y1="88.9688" y2="108.9688"/><polygon fill="#181818" points="144.1335,98.9688,148.1335,108.9688,152.1335,98.9688,148.1335,102.9688" style="stroke:#181818;stroke-width:1;"/><line style="stroke:#181818;stroke-width:1;" x1="148.1335" x2="148.1335" y1="186.9375" y2="206.9375"/><polygon fill="#181818" points="144.1335,196.9375,148.1335,206.9375,152.1335,196.9375,148.1335,200.9375" style="stroke:#181818;stroke-width:1;"/><line style="stroke:#181818;stroke-width:1;" x1="148.1335" x2="148.1335" y1="240.9063" y2="260.9063"/><polygon fill="#181818" points="144.1335,250.9063,148.1335,260.9063,152.1335,250.9063,148.1335,254.9063" style="stroke:#181818;stroke-width:1;"/><line style="stroke:#181818;stroke-width:1;" x1="148.1335" x2="148.1335" y1="294.875" y2="314.875"/><polygon fill="#181818" points="144.1335,304.875,148.1335,314.875,152.1335,304.875,148.1335,308.875" style="stroke:#181818;stroke-width:1;"/><line style="stroke:#181818;stroke-width:1;" x1="148.1335" x2="148.1335" y1="451.2148" y2="471.2148"/><polygon fill="#181818" points="144.1335,461.2148,148.1335,471.2148,152.1335,461.2148,148.1335,465.2148" style="stroke:#181818;stroke-width:1;"/><line style="stroke:#181818;stroke-width:1;" x1="148.1335" x2="148.1335" y1="505.1836" y2="525.1836"/><polygon fill="#181818" points="144.1335,515.1836,148.1335,525.1836,152.1335,515.1836,148.1335,519.1836" style="stroke:#181818;stroke-width:1;"/><line style="stroke:#181818;stroke-width:1;" x1="148.1335" x2="148.1335" y1="559.1523" y2="579.1523"/><polygon fill="#181818" points="144.1335,569.1523,148.1335,579.1523,152.1335,569.1523,148.1335,573.1523" style="stroke:#181818;stroke-width:1;"/><line style="stroke:#181818;stroke-width:1;" x1="148.1335" x2="148.1335" y1="613.1211" y2="633.1211"/><polygon fill="#181818" points="144.1335,623.1211,148.1335,633.1211,152.1335,623.1211,148.1335,627.1211" style="stroke:#181818;stroke-width:1;"/><line style="stroke:#181818;stroke-width:1;" x1="148.1335" x2="148.1335" y1="392.8438" y2="417.2461"/><polygon fill="#181818" points="144.1335,407.2461,148.1335,417.2461,152.1335,407.2461,148.1335,411.2461" style="stroke:#181818;stroke-width:1;"/><line style="stroke:#181818;stroke-width:1;" x1="189.8517" x2="290.2669" y1="380.8438" y2="380.8438"/><polygon fill="#181818" points="286.2669,532.168,290.2669,542.168,294.2669,532.168,290.2669,536.168" style="stroke:#181818;stroke-width:1;"/><line style="stroke:#181818;stroke-width:1;" x1="290.2669" x2="290.2669" y1="380.8438" y2="699.0898"/><line style="stroke:#181818;stroke-width:1;" x1="290.2669" x2="160.1335" y1="699.0898" y2="699.0898"/><polygon fill="#181818" points="170.1335,695.0898,160.1335,699.0898,170.1335,703.0898,166.1335,699.0898" style="stroke:#181818;stroke-width:1;"/><line style="stroke:#181818;stroke-width:1;" x1="148.1335" x2="148.1335" y1="667.0898" y2="687.0898"/><polygon fill="#181818" points="144.1335,677.0898,148.1335,687.0898,152.1335,677.0898,148.1335,681.0898" style="stroke:#181818;stroke-width:1;"/><line style="stroke:#181818;stroke-width:1;" x1="148.1335" x2="148.1335" y1="348.8438" y2="368.8438"/><polygon fill="#181818" points="144.1335,358.8438,148.1335,368.8438,152.1335,358.8438,148.1335,362.8438" style="stroke:#181818;stroke-width:1;"/><line style="stroke:#181818;stroke-width:1;" x1="148.1335" x2="148.1335" y1="711.0898" y2="731.0898"/><polygon fill="#181818" points="144.1335,721.0898,148.1335,731.0898,152.1335,721.0898,148.1335,725.0898" style="stroke:#181818;stroke-width:1;"/><line style="stroke:#181818;stroke-width:1;" x1="148.1335" x2="148.1335" y1="765.0586" y2="785.0586"/><polygon fill="#181818" points="144.1335,775.0586,148.1335,785.0586,152.1335,775.0586,148.1335,779.0586" style="stroke:#181818;stroke-width:1;"/><line style="stroke:#181818;stroke-width:1;" x1="148.1335" x2="148.1335" y1="819.0273" y2="839.0273"/><polygon fill="#181818" points="144.1335,829.0273,148.1335,839.0273,152.1335,829.0273,148.1335,833.0273" style="stroke:#181818;stroke-width:1;"/><line style="stroke:#181818;stroke-width:1;" x1="148.1335" x2="148.1335" y1="872.9961" y2="892.9961"/><polygon fill="#181818" points="144.1335,882.9961,148.1335,892.9961,152.1335,882.9961,148.1335,886.9961" style="stroke:#181818;stroke-width:1;"/><?plantuml-src NL7DJi9W4BptAVROHdvQl87emHSmlW697v5OsWQANfKeFme5Ga0JR804C6e4BWOHX9TXlxOdNi6l1QFnkZipEpERrcCfdUF2zgAEDtr8wodrZ0Gq7wHKcKGbCI16E2uH1zxAJcbZ37iGEX10FoKAyFHX9730EAh64UKa4MSwM33nwGvBJUlv4wir9ry1XLmSHRXm0bOp0qHmhifevB0m1iKVOdDxsBM6z_XLnsAP3jzN7prsofwOrc06Cb4OGiaaqn25XABpR11qdGdW1sdhp5llW_ZVLnWhJISxivSrRBMO9cYYJvDyMiYdxQxd1NinjHebx5qx-JBsojRhY67MysB4fTAtljDOicX4OvUbe7TaHnAyfRvDucQG_2vcFIynXhriUGmFT1ZJanbPzX-hIQ2T2JMxcw2qEMPtqApIJju3uct7RNxJ4f7J17Yi3eJVHXSlbZ6oPdLgjbaPECxHnqki6cYqMTEkrb-1yCy7cUsaUavuTynikq_w1W00?></g></svg>