<svg xmlns="http://www.w3.org/2000/svg" xmlns:xlink="http://www.w3.org/1999/xlink" contentStyleType="text/css" data-diagram-type="ACTIVITY" height="706px" preserveAspectRatio="none" style="width:180px;height:706px;background:#FFFFFF;" version="1.1" viewBox="0 0 180 706" width="180px" zoomAndPan="magnify"><?plantuml 1.2026.3beta6?><defs/><g><ellipse cx="88.4936" cy="25" fill="#222222" rx="10" ry="10" style="stroke:#222222;stroke-width:1;"/><rect fill="#F1F1F1" height="47.9375" rx="12.5" ry="12.5" style="stroke:#181818;stroke-width:0.5;" width="144.9872" x="16" y="55"/><text fill="#000000" font-family="sans-serif" font-size="12" lengthAdjust="spacing" textLength="123.2645" x="26" y="76.1387">1. &#26500;&#36896;&#20989;&#25968;&#36873;&#25321;&#25968;&#25454;&#28304;</text><text fill="#000000" font-family="sans-serif" font-size="12" lengthAdjust="spacing" textLength="124.9872" x="26" y="90.1074">&#21152;&#36733;&#37197;&#32622; &amp; &#39044;&#21152;&#36733;&#32531;&#23384;</text><rect fill="#F1F1F1" height="33.9688" rx="12.5" ry="12.5" style="stroke:#181818;stroke-width:0.5;" width="140.8853" x="18.0509" y="122.9375"/><text fill="#000000" font-family="sans-serif" font-size="12" lengthAdjust="spacing" textLength="120.8853" x="28.0509" y="144.0762">2. &#26597;&#35810;/&#21152;&#36733;&#23383;&#31526;JSON</text><rect fill="#F1F1F1" height="33.9688" rx="12.5" ry="12.5" style="stroke:#181818;stroke-width:0.5;" width="119.2643" x="28.8614" y="176.9063"/><text fill="#000000" font-family="sans-serif" font-size="12" lengthAdjust="spacing" textLength="99.2643" x="38.8614" y="198.0449">3. &#21152;&#36733;&#21407;&#22987;&#39592;&#26550;&#28857;</text><rect fill="#F1F1F1" height="47.9375" rx="12.5" ry="12.5" style="stroke:#181818;stroke-width:0.5;" width="107.2642" x="34.8615" y="230.875"/><text fill="#000000" font-family="sans-serif" font-size="12" lengthAdjust="spacing" textLength="87.2642" x="44.8615" y="252.0137">4. &#25512;&#26029;&#31508;&#30011;&#31867;&#22411;</text><text fill="#000000" font-family="sans-serif" font-size="12" lengthAdjust="spacing" textLength="60.0005" x="44.8615" y="265.9824">&#20998;&#21106;&#23376;&#31508;&#30011;</text><rect fill="#F1F1F1" height="33.9688" rx="12.5" ry="12.5" style="stroke:#181818;stroke-width:0.5;" width="143.2645" x="16.8613" y="298.8125"/><text fill="#000000" font-family="sans-serif" font-size="12" lengthAdjust="spacing" textLength="123.2645" x="26.8613" y="319.9512">5. &#26679;&#26465;&#25554;&#20540;&#22686;&#21152;&#20013;&#38388;&#28857;</text><rect fill="#F1F1F1" height="33.9688" rx="12.5" ry="12.5" style="stroke:#181818;stroke-width:0.5;" width="107.2642" x="34.8615" y="352.7813"/><text fill="#000000" font-family="sans-serif" font-size="12" lengthAdjust="spacing" textLength="87.2642" x="44.8615" y="373.9199">6. &#31508;&#30011;&#26411;&#31471;&#24310;&#20280;</text><rect fill="#F1F1F1" height="33.9688" rx="12.5" ry="12.5" style="stroke:#181818;stroke-width:0.5;" width="127.485" x="24.7511" y="406.75"/><text fill="#000000" font-family="sans-serif" font-size="12" lengthAdjust="spacing" textLength="107.485" x="34.7511" y="427.8887">7. &#29983;&#25104;Z&#36724;&#21387;&#21147;&#26354;&#32447;</text><rect fill="#F1F1F1" height="47.9375" rx="12.5" ry="12.5" style="stroke:#181818;stroke-width:0.5;" width="100.0865" x="38.4503" y="460.7188"/><text fill="#000000" font-family="sans-serif" font-size="12" lengthAdjust="spacing" textLength="75.2641" x="48.4503" y="481.8574">8. &#20010;&#24615;&#21270;&#31508;&#30011;</text><text fill="#000000" font-family="sans-serif" font-size="12" lengthAdjust="spacing" textLength="80.0865" x="48.4503" y="495.8262">&#39039;&#25387;/&#36716;&#25240;/&#31508;&#38155;</text><rect fill="#F1F1F1" height="47.9375" rx="12.5" ry="12.5" style="stroke:#181818;stroke-width:0.5;" width="112.0866" x="32.4503" y="528.6563"/><text fill="#000000" font-family="sans-serif" font-size="12" lengthAdjust="spacing" textLength="63.264" x="42.4503" y="549.7949">9. &#24179;&#28369;&#28388;&#27874;</text><text fill="#000000" font-family="sans-serif" font-size="12" lengthAdjust="spacing" textLength="92.0866" x="42.4503" y="563.7637">&#21435;&#37325;/&#24179;&#22343;/&#21435;&#20849;&#32447;</text><rect fill="#F1F1F1" height="47.9375" rx="12.5" ry="12.5" style="stroke:#181818;stroke-width:0.5;" width="102.8989" x="37.0441" y="596.5938"/><text fill="#000000" font-family="sans-serif" font-size="12" lengthAdjust="spacing" textLength="82.8989" x="47.0441" y="617.7324">10. &#21512;&#25104;&#25972;&#20010;&#23383;</text><text fill="#000000" font-family="sans-serif" font-size="12" lengthAdjust="spacing" textLength="64.0197" x="47.0441" y="631.7012">&#36755;&#20986;GCode</text><ellipse cx="88.4936" cy="675.5313" fill="none" rx="11" ry="11" style="stroke:#222222;stroke-width:1;"/><ellipse cx="88.4936" cy="675.5313" fill="#222222" rx="6" ry="6" style="stroke:#222222;stroke-width:1;"/><line style="stroke:#181818;stroke-width:1;" x1="88.4936" x2="88.4936" y1="35" y2="55"/><polygon fill="#181818" points="84.4936,45,88.4936,55,92.4936,45,88.4936,49" style="stroke:#181818;stroke-width:1;"/><line style="stroke:#181818;stroke-width:1;" x1="88.4936" x2="88.4936" y1="102.9375" y2="122.9375"/><polygon fill="#181818" points="84.4936,112.9375,88.4936,122.9375,92.4936,112.9375,88.4936,116.9375" style="stroke:#181818;stroke-width:1;"/><line style="stroke:#181818;stroke-width:1;" x1="88.4936" x2="88.4936" y1="156.9063" y2="176.9063"/><polygon fill="#181818" points="84.4936,166.9063,88.4936,176.9063,92.4936,166.9063,88.4936,170.9063" style="stroke:#181818;stroke-width:1;"/><line style="stroke:#181818;stroke-width:1;" x1="88.4936" x2="88.4936" y1="210.875" y2="230.875"/><polygon fill="#181818" points="84.4936,220.875,88.4936,230.875,92.4936,220.875,88.4936,224.875" style="stroke:#181818;stroke-width:1;"/><line style="stroke:#181818;stroke-width:1;" x1="88.4936" x2="88.4936" y1="278.8125" y2="298.8125"/><polygon fill="#181818" points="84.4936,288.8125,88.4936,298.8125,92.4936,288.8125,88.4936,292.8125" style="stroke:#181818;stroke-width:1;"/><line style="stroke:#181818;stroke-width:1;" x1="88.4936" x2="88.4936" y1="332.7813" y2="352.7813"/><polygon fill="#181818" points="84.4936,342.7813,88.4936,352.7813,92.4936,342.7813,88.4936,346.7813" style="stroke:#181818;stroke-width:1;"/><line style="stroke:#181818;stroke-width:1;" x1="88.4936" x2="88.4936" y1="386.75" y2="406.75"/><polygon fill="#181818" points="84.4936,396.75,88.4936,406.75,92.4936,396.75,88.4936,400.75" style="stroke:#181818;stroke-width:1;"/><line style="stroke:#181818;stroke-width:1;" x1="88.4936" x2="88.4936" y1="440.7188" y2="460.7188"/><polygon fill="#181818" points="84.4936,450.7188,88.4936,460.7188,92.4936,450.7188,88.4936,454.7188" style="stroke:#181818;stroke-width:1;"/><line style="stroke:#181818;stroke-width:1;" x1="88.4936" x2="88.4936" y1="508.6563" y2="528.6563"/><polygon fill="#181818" points="84.4936,518.6563,88.4936,528.6563,92.4936,518.6563,88.4936,522.6563" style="stroke:#181818;stroke-width:1;"/><line style="stroke:#181818;stroke-width:1;" x1="88.4936" x2="88.4936" y1="576.5938" y2="596.5938"/><polygon fill="#181818" points="84.4936,586.5938,88.4936,596.5938,92.4936,586.5938,88.4936,590.5938" style="stroke:#181818;stroke-width:1;"/><line style="stroke:#181818;stroke-width:1;" x1="88.4936" x2="88.4936" y1="644.5313" y2="664.5313"/><polygon fill="#181818" points="84.4936,654.5313,88.4936,664.5313,92.4936,654.5313,88.4936,658.5313" style="stroke:#181818;stroke-width:1;"/><?plantuml-src BP3BJi9058RtVOgkNBRY_R9qOU925-xScUWQ8pn0Oy02XLgbN1AaGAE2b89SWa2fl0pdJESjF4tPpVpVVxwJcKJozZ4f22SnIKGhnPKcg3wMVhYIHUsR3bZeuy8G8DSCV9-d2yplYriYjrDHmfP5SAkd9DWXGUCp6DXoHC2jiDxNnVNLPKXt9N4JwmreQxpRGMlAdkOXswD9lODbb_LCPdfiw86b2P1vXkm8N2DAm-8-5Pk_M6_XonieIx0jSgvdBgzCDge3IOpg-EumPm3UTBsSXU2GWDd0Z74J-1FGDSZLi3PYYrK8ZoHnFUkYqePyEHeNU6k5UKSE_1xcgZA5tDJ2wZ6zOpv6xnMz3npR0kWULmioPL1NPRf1UhYnnhQfQsHe9vOcvASF4OA_8gYByxFutJrL4idumpy0?></g></svg>