<svg xmlns="http://www.w3.org/2000/svg" xmlns:xlink="http://www.w3.org/1999/xlink" contentStyleType="text/css" data-diagram-type="ACTIVITY" height="1321px" preserveAspectRatio="none" style="width:391px;height:1321px;background:#FFFFFF;" version="1.1" viewBox="0 0 391 1321" width="391px" zoomAndPan="magnify"><?plantuml 1.2026.3beta6?><defs/><g><ellipse cx="181.3765" cy="25" fill="#222222" rx="10" ry="10" style="stroke:#222222;stroke-width:1;"/><rect fill="#F1F1F1" height="33.9688" rx="12.5" ry="12.5" style="stroke:#181818;stroke-width:0.5;" width="85.3791" x="138.6869" y="55"/><text fill="#000000" font-family="sans-serif" font-size="12" lengthAdjust="spacing" textLength="65.3791" x="148.6869" y="76.1387">&#36755;&#20837; stroke</text><rect fill="#F1F1F1" height="33.9688" rx="12.5" ry="12.5" style="stroke:#181818;stroke-width:0.5;" width="246.0084" x="58.3723" y="108.9688"/><text fill="#000000" font-family="sans-serif" font-size="12" lengthAdjust="spacing" textLength="226.0084" x="68.3723" y="130.1074">&#35843;&#29992; updateSubStrokeIndices &#21305;&#37197;&#32034;&#24341;</text><rect fill="#F1F1F1" height="33.9688" rx="12.5" ry="12.5" style="stroke:#181818;stroke-width:0.5;" width="104.0006" x="129.3762" y="211.3398"/><text fill="#000000" font-family="sans-serif" font-size="12" lengthAdjust="spacing" textLength="84.0006" x="139.3762" y="232.4785">&#27178;&#24320;&#22836;&#39039;&#25387;&#22788;&#29702;</text><rect fill="#F1F1F1" height="33.9688" rx="12.5" ry="12.5" style="stroke:#181818;stroke-width:0.5;" width="176.0012" x="93.3759" y="265.3086"/><text fill="#000000" font-family="sans-serif" font-size="12" lengthAdjust="spacing" textLength="156.0012" x="103.3759" y="286.4473">&#21462;&#36215;&#28857;&#26041;&#21521;&#30340;&#21453;&#26041;&#21521;&#65288;&#24038;&#19978;&#65289;</text><rect fill="#F1F1F1" height="33.9688" rx="12.5" ry="12.5" style="stroke:#181818;stroke-width:0.5;" width="330.753" x="16" y="319.2773"/><text fill="#000000" font-family="sans-serif" font-size="12" lengthAdjust="spacing" textLength="310.753" x="26" y="340.416">&#26500;&#36896;4&#20010;&#24310;&#20280;&#28857;&#65292;z &#20174; pressDepth &#28176;&#21464;&#21040; releaseDepth</text><rect fill="#F1F1F1" height="33.9688" rx="12.5" ry="12.5" style="stroke:#181818;stroke-width:0.5;" width="136.6255" x="113.0638" y="373.2461"/><text fill="#000000" font-family="sans-serif" font-size="12" lengthAdjust="spacing" textLength="116.6255" x="123.0638" y="394.3848">&#25554;&#20837;&#21040; stroke.p &#24320;&#22836;</text><rect fill="#F1F1F1" height="33.9688" rx="12.5" ry="12.5" style="stroke:#181818;stroke-width:0.5;" width="128.0008" x="117.3761" y="427.2148"/><text fill="#000000" font-family="sans-serif" font-size="12" lengthAdjust="spacing" textLength="108.0008" x="127.3761" y="448.3535">&#26356;&#26032;&#25152;&#26377;&#23376;&#31508;&#30011;&#32034;&#24341;</text><polygon fill="#F1F1F1" points="120.6996,162.9375,242.0534,162.9375,254.0534,174.9375,242.0534,186.9375,120.6996,186.9375,108.6996,174.9375,120.6996,162.9375" style="stroke:#181818;stroke-width:0.5;"/><text fill="#000000" font-family="sans-serif" font-size="11" lengthAdjust="spacing" textLength="10.9999" x="185.3765" y="197.1479">&#26159;</text><text fill="#000000" font-family="sans-serif" font-size="11" lengthAdjust="spacing" textLength="121.3538" x="120.6996" y="178.7456">&#31532;&#19968;&#20010;&#23376;&#31508;&#30011;&#31867;&#22411;&#20026; 'h'?</text><polygon fill="#F1F1F1" points="181.3765,481.1836,193.3765,493.1836,181.3765,505.1836,169.3765,493.1836,181.3765,481.1836" style="stroke:#181818;stroke-width:0.5;"/><rect fill="#F1F1F1" height="33.9688" rx="12.5" ry="12.5" style="stroke:#181818;stroke-width:0.5;" width="92.0005" x="135.3762" y="573.5859"/><text fill="#000000" font-family="sans-serif" font-size="12" lengthAdjust="spacing" textLength="72.0005" x="145.3762" y="594.7246">&#26411;&#23614;&#31508;&#38155;&#22788;&#29702;</text><rect fill="#F1F1F1" height="33.9688" rx="12.5" ry="12.5" style="stroke:#181818;stroke-width:0.5;" width="104.0006" x="129.3762" y="627.5547"/><text fill="#000000" font-family="sans-serif" font-size="12" lengthAdjust="spacing" textLength="84.0006" x="139.3762" y="648.6934">&#21462;&#35813;&#23376;&#31508;&#30011;&#21306;&#38388;</text><rect fill="#F1F1F1" height="33.9688" rx="12.5" ry="12.5" style="stroke:#181818;stroke-width:0.5;" width="128.0008" x="117.3761" y="696.5234"/><text fill="#000000" font-family="sans-serif" font-size="12" lengthAdjust="spacing" textLength="108.0008" x="127.3761" y="717.6621">&#35745;&#31639;&#21306;&#38388;&#20869;&#32047;&#31215;&#36317;&#31163;</text><rect fill="#F1F1F1" height="33.9688" rx="12.5" ry="12.5" style="stroke:#181818;stroke-width:0.5;" width="222.1553" x="70.2988" y="750.4922"/><text fill="#000000" font-family="sans-serif" font-size="12" lengthAdjust="spacing" textLength="202.1553" x="80.2988" y="771.6309">&#23545;&#27599;&#20010;&#28857;&#25353; sin &#26354;&#32447;&#23558; z &#28176;&#21464;&#21040; zMin</text><polygon fill="#F1F1F1" points="91.4298,525.1836,271.3231,525.1836,283.3231,537.1836,271.3231,549.1836,91.4298,549.1836,79.4298,537.1836,91.4298,525.1836" style="stroke:#181818;stroke-width:0.5;"/><text fill="#000000" font-family="sans-serif" font-size="11" lengthAdjust="spacing" textLength="10.9999" x="185.3765" y="559.394">&#26159;</text><text fill="#000000" font-family="sans-serif" font-size="11" lengthAdjust="spacing" textLength="179.8933" x="91.4298" y="540.9917">&#26368;&#21518;&#19968;&#20010;&#23376;&#31508;&#30011;&#31867;&#22411;&#20026; 'g'/'t'/'p'/'n'?</text><polygon fill="#F1F1F1" points="181.3765,804.4609,193.3765,816.4609,181.3765,828.4609,169.3765,816.4609,181.3765,804.4609" style="stroke:#181818;stroke-width:0.5;"/><rect fill="#F1F1F1" height="33.9688" rx="12.5" ry="12.5" style="stroke:#181818;stroke-width:0.5;" width="104.0006" x="129.3762" y="848.4609"/><text fill="#000000" font-family="sans-serif" font-size="12" lengthAdjust="spacing" textLength="84.0006" x="139.3762" y="869.5996">&#36941;&#21382;&#30456;&#37051;&#23376;&#31508;&#30011;</text><rect fill="#F1F1F1" height="33.9688" rx="12.5" ry="12.5" style="stroke:#181818;stroke-width:0.5;" width="80.0005" x="141.3763" y="950.832"/><text fill="#000000" font-family="sans-serif" font-size="12" lengthAdjust="spacing" textLength="60.0005" x="151.3763" y="971.9707">&#36716;&#25240;&#22788;&#22788;&#29702;</text><rect fill="#F1F1F1" height="33.9688" rx="12.5" ry="12.5" style="stroke:#181818;stroke-width:0.5;" width="240.4602" x="61.1464" y="1004.8008"/><text fill="#000000" font-family="sans-serif" font-size="12" lengthAdjust="spacing" textLength="220.4602" x="71.1464" y="1025.9395">&#27178;&#26411;&#31471;&#24310;&#20280;3&#20010;&#28857;&#65292;&#28155;&#21152;&#20572;&#39039;&#28857;(z=zMax)</text><rect fill="#F1F1F1" height="33.9688" rx="12.5" ry="12.5" style="stroke:#181818;stroke-width:0.5;" width="212.0015" x="75.3757" y="1073.7695"/><text fill="#000000" font-family="sans-serif" font-size="12" lengthAdjust="spacing" textLength="192.0015" x="85.3757" y="1094.9082">&#20174;&#24310;&#20280;&#32456;&#28857;&#21040;&#31446;&#36215;&#28857;&#32447;&#24615;&#25554;&#20540;&#36807;&#28193;&#28857;</text><rect fill="#F1F1F1" height="33.9688" rx="12.5" ry="12.5" style="stroke:#181818;stroke-width:0.5;" width="114.1139" x="124.3195" y="1127.7383"/><text fill="#000000" font-family="sans-serif" font-size="12" lengthAdjust="spacing" textLength="94.1139" x="134.3195" y="1148.877">z &#20445;&#25345;&#37325;&#21387;&#21518;&#28176;&#21464;</text><polygon fill="#F1F1F1" points="116.0212,902.4297,246.7318,902.4297,258.7318,914.4297,246.7318,926.4297,116.0212,926.4297,104.0212,914.4297,116.0212,902.4297" style="stroke:#181818;stroke-width:0.5;"/><text fill="#000000" font-family="sans-serif" font-size="11" lengthAdjust="spacing" textLength="10.9999" x="185.3765" y="936.6401">&#26159;</text><text fill="#000000" font-family="sans-serif" font-size="11" lengthAdjust="spacing" textLength="130.7106" x="116.0212" y="918.2378">&#31867;&#22411;&#23545;&#20026; 'h-sh' &#25110; 'sh-h'?</text><polygon fill="#F1F1F1" points="181.3765,1181.707,193.3765,1193.707,181.3765,1205.707,169.3765,1193.707,181.3765,1181.707" style="stroke:#181818;stroke-width:0.5;"/><rect fill="#F1F1F1" height="33.9688" rx="12.5" ry="12.5" style="stroke:#181818;stroke-width:0.5;" width="172.6257" x="95.0636" y="1225.707"/><text fill="#000000" font-family="sans-serif" font-size="12" lengthAdjust="spacing" textLength="152.6257" x="105.0636" y="1246.8457">&#26356;&#26032; stroke.p &#21450;&#23376;&#31508;&#30011;&#32034;&#24341;</text><ellipse cx="181.3765" cy="1290.6758" fill="none" rx="11" ry="11" style="stroke:#222222;stroke-width:1;"/><ellipse cx="181.3765" cy="1290.6758" fill="#222222" rx="6" ry="6" style="stroke:#222222;stroke-width:1;"/><line style="stroke:#181818;stroke-width:1;" x1="181.3765" x2="181.3765" y1="35" y2="55"/><polygon fill="#181818" points="177.3765,45,181.3765,55,185.3765,45,181.3765,49" style="stroke:#181818;stroke-width:1;"/><line style="stroke:#181818;stroke-width:1;" x1="181.3765" x2="181.3765" y1="88.9688" y2="108.9688"/><polygon fill="#181818" points="177.3765,98.9688,181.3765,108.9688,185.3765,98.9688,181.3765,102.9688" style="stroke:#181818;stroke-width:1;"/><line style="stroke:#181818;stroke-width:1;" x1="181.3765" x2="181.3765" y1="245.3086" y2="265.3086"/><polygon fill="#181818" points="177.3765,255.3086,181.3765,265.3086,185.3765,255.3086,181.3765,259.3086" style="stroke:#181818;stroke-width:1;"/><line style="stroke:#181818;stroke-width:1;" x1="181.3765" x2="181.3765" y1="299.2773" y2="319.2773"/><polygon fill="#181818" points="177.3765,309.2773,181.3765,319.2773,185.3765,309.2773,181.3765,313.2773" style="stroke:#181818;stroke-width:1;"/><line style="stroke:#181818;stroke-width:1;" x1="181.3765" x2="181.3765" y1="353.2461" y2="373.2461"/><polygon fill="#181818" points="177.3765,363.2461,181.3765,373.2461,185.3765,363.2461,181.3765,367.2461" style="stroke:#181818;stroke-width:1;"/><line style="stroke:#181818;stroke-width:1;" x1="181.3765" x2="181.3765" y1="407.2148" y2="427.2148"/><polygon fill="#181818" points="177.3765,417.2148,181.3765,427.2148,185.3765,417.2148,181.3765,421.2148" style="stroke:#181818;stroke-width:1;"/><line style="stroke:#181818;stroke-width:1;" x1="181.3765" x2="181.3765" y1="186.9375" y2="211.3398"/><polygon fill="#181818" points="177.3765,201.3398,181.3765,211.3398,185.3765,201.3398,181.3765,205.3398" style="stroke:#181818;stroke-width:1;"/><line style="stroke:#181818;stroke-width:1;" x1="254.0534" x2="356.753" y1="174.9375" y2="174.9375"/><polygon fill="#181818" points="352.753,326.2617,356.753,336.2617,360.753,326.2617,356.753,330.2617" style="stroke:#181818;stroke-width:1;"/><line style="stroke:#181818;stroke-width:1;" x1="356.753" x2="356.753" y1="174.9375" y2="493.1836"/><line style="stroke:#181818;stroke-width:1;" x1="356.753" x2="193.3765" y1="493.1836" y2="493.1836"/><polygon fill="#181818" points="203.3765,489.1836,193.3765,493.1836,203.3765,497.1836,199.3765,493.1836" style="stroke:#181818;stroke-width:1;"/><line style="stroke:#181818;stroke-width:1;" x1="181.3765" x2="181.3765" y1="461.1836" y2="481.1836"/><polygon fill="#181818" points="177.3765,471.1836,181.3765,481.1836,185.3765,471.1836,181.3765,475.1836" style="stroke:#181818;stroke-width:1;"/><line style="stroke:#181818;stroke-width:1;" x1="181.3765" x2="181.3765" y1="142.9375" y2="162.9375"/><polygon fill="#181818" points="177.3765,152.9375,181.3765,162.9375,185.3765,152.9375,181.3765,156.9375" style="stroke:#181818;stroke-width:1;"/><line style="stroke:#181818;stroke-width:1;" x1="181.3765" x2="181.3765" y1="607.5547" y2="627.5547"/><polygon fill="#181818" points="177.3765,617.5547,181.3765,627.5547,185.3765,617.5547,181.3765,621.5547" style="stroke:#181818;stroke-width:1;"/><line style="stroke:#181818;stroke-width:1;" x1="181.3765" x2="181.3765" y1="661.5234" y2="696.5234"/><polygon fill="#181818" points="177.3765,686.5234,181.3765,696.5234,185.3765,686.5234,181.3765,690.5234" style="stroke:#181818;stroke-width:1;"/><line style="stroke:#181818;stroke-width:1;" x1="181.3765" x2="181.3765" y1="730.4922" y2="750.4922"/><polygon fill="#181818" points="177.3765,740.4922,181.3765,750.4922,185.3765,740.4922,181.3765,744.4922" style="stroke:#181818;stroke-width:1;"/><line style="stroke:#181818;stroke-width:1;" x1="181.3765" x2="181.3765" y1="549.1836" y2="573.5859"/><polygon fill="#181818" points="177.3765,563.5859,181.3765,573.5859,185.3765,563.5859,181.3765,567.5859" style="stroke:#181818;stroke-width:1;"/><line style="stroke:#181818;stroke-width:1;" x1="283.3231" x2="302.4541" y1="537.1836" y2="537.1836"/><polygon fill="#181818" points="298.4541,669.0234,302.4541,679.0234,306.4541,669.0234,302.4541,673.0234" style="stroke:#181818;stroke-width:1;"/><line style="stroke:#181818;stroke-width:1;" x1="302.4541" x2="302.4541" y1="537.1836" y2="816.4609"/><line style="stroke:#181818;stroke-width:1;" x1="302.4541" x2="193.3765" y1="816.4609" y2="816.4609"/><polygon fill="#181818" points="203.3765,812.4609,193.3765,816.4609,203.3765,820.4609,199.3765,816.4609" style="stroke:#181818;stroke-width:1;"/><line style="stroke:#181818;stroke-width:1;" x1="181.3765" x2="181.3765" y1="784.4609" y2="804.4609"/><polygon fill="#181818" points="177.3765,794.4609,181.3765,804.4609,185.3765,794.4609,181.3765,798.4609" style="stroke:#181818;stroke-width:1;"/><line style="stroke:#181818;stroke-width:1;" x1="181.3765" x2="181.3765" y1="505.1836" y2="525.1836"/><polygon fill="#181818" points="177.3765,515.1836,181.3765,525.1836,185.3765,515.1836,181.3765,519.1836" style="stroke:#181818;stroke-width:1;"/><line style="stroke:#181818;stroke-width:1;" x1="181.3765" x2="181.3765" y1="828.4609" y2="848.4609"/><polygon fill="#181818" points="177.3765,838.4609,181.3765,848.4609,185.3765,838.4609,181.3765,842.4609" style="stroke:#181818;stroke-width:1;"/><line style="stroke:#181818;stroke-width:1;" x1="181.3765" x2="181.3765" y1="984.8008" y2="1004.8008"/><polygon fill="#181818" points="177.3765,994.8008,181.3765,1004.8008,185.3765,994.8008,181.3765,998.8008" style="stroke:#181818;stroke-width:1;"/><line style="stroke:#181818;stroke-width:1;" x1="181.3765" x2="181.3765" y1="1038.7695" y2="1073.7695"/><polygon fill="#181818" points="177.3765,1063.7695,181.3765,1073.7695,185.3765,1063.7695,181.3765,1067.7695" style="stroke:#181818;stroke-width:1;"/><line style="stroke:#181818;stroke-width:1;" x1="181.3765" x2="181.3765" y1="1107.7383" y2="1127.7383"/><polygon fill="#181818" points="177.3765,1117.7383,181.3765,1127.7383,185.3765,1117.7383,181.3765,1121.7383" style="stroke:#181818;stroke-width:1;"/><line style="stroke:#181818;stroke-width:1;" x1="181.3765" x2="181.3765" y1="926.4297" y2="950.832"/><polygon fill="#181818" points="177.3765,940.832,181.3765,950.832,185.3765,940.832,181.3765,944.832" style="stroke:#181818;stroke-width:1;"/><line style="stroke:#181818;stroke-width:1;" x1="258.7318" x2="311.6066" y1="914.4297" y2="914.4297"/><polygon fill="#181818" points="307.6066,1046.2695,311.6066,1056.2695,315.6066,1046.2695,311.6066,1050.2695" style="stroke:#181818;stroke-width:1;"/><line style="stroke:#181818;stroke-width:1;" x1="311.6066" x2="311.6066" y1="914.4297" y2="1193.707"/><line style="stroke:#181818;stroke-width:1;" x1="311.6066" x2="193.3765" y1="1193.707" y2="1193.707"/><polygon fill="#181818" points="203.3765,1189.707,193.3765,1193.707,203.3765,1197.707,199.3765,1193.707" style="stroke:#181818;stroke-width:1;"/><line style="stroke:#181818;stroke-width:1;" x1="181.3765" x2="181.3765" y1="1161.707" y2="1181.707"/><polygon fill="#181818" points="177.3765,1171.707,181.3765,1181.707,185.3765,1171.707,181.3765,1175.707" style="stroke:#181818;stroke-width:1;"/><line style="stroke:#181818;stroke-width:1;" x1="181.3765" x2="181.3765" y1="882.4297" y2="902.4297"/><polygon fill="#181818" points="177.3765,892.4297,181.3765,902.4297,185.3765,892.4297,181.3765,896.4297" style="stroke:#181818;stroke-width:1;"/><line style="stroke:#181818;stroke-width:1;" x1="181.3765" x2="181.3765" y1="1205.707" y2="1225.707"/><polygon fill="#181818" points="177.3765,1215.707,181.3765,1225.707,185.3765,1215.707,181.3765,1219.707" style="stroke:#181818;stroke-width:1;"/><line style="stroke:#181818;stroke-width:1;" x1="181.3765" x2="181.3765" y1="1259.6758" y2="1279.6758"/><polygon fill="#181818" points="177.3765,1269.6758,181.3765,1279.6758,185.3765,1269.6758,181.3765,1273.6758" style="stroke:#181818;stroke-width:1;"/><?plantuml-src TPBDRjf0483lFCNU38UqX_G4gdhffOUSyWIqSGfgHIpiI9LF9WN2Zy5kImaA90fL_XH8x5Qq6Eo6b_7isYTUeOCN4TIcXvNMCvxT-UPRMKddbLWi6Tn_WT85aPNytZinXT_sHzQw9llIJbeHj_TVRqU9LxcTx1jH9g1FmbA3ZRw1zpKLYsLtIPmDXxwZ-SuDt9fis68jbtrtuRJkErCYP8GN2Q9an1o9quwLY16IfDStu6bmFWhxCweFuBp8p79gaG6Z7VmSiuC9RK_0_CIEYs0q-7xkLM1ywJkrkLUD_gMdnL0xUxQurltbUmvMpJrT9RxR959UbEMNegHa27LCC3fGiKbUV2-cPJ4AynECpmY-I77s9nBXVV5iTqJRDgrgj5Tz05joYpYDNKvFUngOpVyFuAtmL51mIRXoZmoZDm3x7gl2LlslILWNg_D0duP7lA_Whi_kZdW0oYKsijYL5OnFsANBAwq9jGniPZ56lKhaR8xGxWysdO5T9khQGDIjR6w5aWmB3MYMMTS93zpLlIakEAB1WxdH3JaZ45ff4q7ER3pYD_WzfBKEmgpne7CaPGEBozha_Q4mEdQXTWQ57Zu6ZCJLv-fM-aCYAaALIxTk1NFOCnii7mZYKErgOL3pWjaXTVeOZ8hm1SnEg5u83v6dZceuy0Ce5xlctAZzurTMzgG_?></g></svg>